<svg width="625" height="188" viewBox="0 0 625 188" fill="none" xmlns="http://www.w3.org/2000/svg">
<g filter="url(#filter0_d_6_8)">
<path d="M20.75 130.8L21.425 164.775C21.425 169.425 20.375 172.575 18.275 174.225C16.175 175.875 14.225 176.7 12.425 176.7C10.625 176.7 8.9 176.475 7.25 176.025C5.3 159.975 4.325 144.3 4.325 129C4.325 113.7 4.775 96.375 5.675 77.025C6.725 57.675 7.325 42.375 7.475 31.125C7.475 19.125 23.525 13.125 55.625 13.125C72.575 13.125 88.55 16.65 103.55 23.7C111.35 27.3 117.725 32.4 122.675 39C127.625 45.45 130.1 52.725 130.1 60.825C130.1 68.775 128.3 75.975 124.7 82.425C121.1 88.875 116.525 94.275 110.975 98.625C105.425 102.825 99.05 106.5 91.85 109.65C80 115.05 66.8 118.65 52.25 120.45C59.45 124.5 71.15 134.25 87.35 149.7C92.15 154.35 98.225 158.55 105.575 162.3C112.925 165.9 120.5 167.7 128.3 167.7C129.05 167.7 130.625 167.55 133.025 167.25C135.425 166.8 137.45 166.5 139.1 166.35C140.75 166.2 142.25 166.575 143.6 167.475C145.1 168.225 145.85 169.65 145.85 171.75C145.85 176.85 139.475 179.4 126.725 179.4C111.875 179.4 97.1 173.7 82.4 162.3C75.95 157.5 69.65 152.55 63.5 147.45C48.35 134.7 34.175 126.675 20.975 123.375C20.825 124.725 20.75 127.2 20.75 130.8ZM113.225 63.525C113.225 50.925 107.525 41.475 96.125 35.175C84.875 28.725 70.55 25.5 53.15 25.5C42.2 25.5 32 26.7 22.55 29.1C22.55 40.95 22.175 54.15 21.425 68.7C20.675 83.1 20.3 93 20.3 98.4C20.3 103.8 20.375 107.775 20.525 110.325C42.725 108.675 59.9 106.05 72.05 102.45C85.1 98.7 94.85 94.05 101.3 88.5C109.25 81.6 113.225 73.275 113.225 63.525ZM167.756 128.325C167.456 131.325 167.306 133.35 167.306 134.4C167.306 143.4 170.006 150.375 175.406 155.325C180.956 160.275 187.481 162.75 194.981 162.75C202.481 162.75 208.556 161.7 213.206 159.6C218.006 157.5 221.456 155.25 223.556 152.85C228.956 146.1 233.906 142.725 238.406 142.725C240.056 142.725 242.006 143.175 244.256 144.075C242.756 151.425 237.056 158.175 227.156 164.325C217.406 170.325 205.106 173.325 190.256 173.325C179.756 173.325 170.681 170.025 163.031 163.425C155.531 156.675 151.781 147.525 151.781 135.975C151.781 124.425 154.031 113.25 158.531 102.45C163.181 91.5 169.781 82.2 178.331 74.55C187.031 66.75 195.806 62.85 204.656 62.85C213.656 62.85 220.856 64.725 226.256 68.475C231.806 72.075 234.581 77.4 234.581 84.45C234.581 97.5 228.731 108.3 217.031 116.85C205.481 125.25 193.181 129.45 180.131 129.45C176.681 129.45 172.556 129.075 167.756 128.325ZM184.856 120.9C191.906 120.9 198.206 118.65 203.756 114.15C209.306 109.65 213.206 104.925 215.456 99.975C217.856 95.025 219.056 90.525 219.056 86.475C219.056 82.425 217.481 78.9 214.331 75.9C211.181 72.75 207.506 71.175 203.306 71.175C195.806 71.175 188.831 76.35 182.381 86.7C176.081 97.05 171.581 107.775 168.881 118.875C175.481 120.225 180.806 120.9 184.856 120.9ZM274.104 128.325C273.804 131.325 273.654 133.35 273.654 134.4C273.654 143.4 276.354 150.375 281.754 155.325C287.304 160.275 293.829 162.75 301.329 162.75C308.829 162.75 314.904 161.7 319.554 159.6C324.354 157.5 327.804 155.25 329.904 152.85C335.304 146.1 340.254 142.725 344.754 142.725C346.404 142.725 348.354 143.175 350.604 144.075C349.104 151.425 343.404 158.175 333.504 164.325C323.754 170.325 311.454 173.325 296.604 173.325C286.104 173.325 277.029 170.025 269.379 163.425C261.879 156.675 258.129 147.525 258.129 135.975C258.129 124.425 260.379 113.25 264.879 102.45C269.529 91.5 276.129 82.2 284.679 74.55C293.379 66.75 302.154 62.85 311.004 62.85C320.004 62.85 327.204 64.725 332.604 68.475C338.154 72.075 340.929 77.4 340.929 84.45C340.929 97.5 335.079 108.3 323.379 116.85C311.829 125.25 299.529 129.45 286.479 129.45C283.029 129.45 278.904 129.075 274.104 128.325ZM291.204 120.9C298.254 120.9 304.554 118.65 310.104 114.15C315.654 109.65 319.554 104.925 321.804 99.975C324.204 95.025 325.404 90.525 325.404 86.475C325.404 82.425 323.829 78.9 320.679 75.9C317.529 72.75 313.854 71.175 309.654 71.175C302.154 71.175 295.179 76.35 288.729 86.7C282.429 97.05 277.929 107.775 275.229 118.875C281.829 120.225 287.154 120.9 291.204 120.9ZM376.401 39.45C376.401 24.6 374.376 14.625 370.326 9.525C372.276 6.67499 375.651 5.24999 380.451 5.24999C381.351 5.24999 382.326 5.32499 383.376 5.475C387.126 9.22499 389.001 20.1 389.001 38.1C389.001 47.85 388.551 59.175 387.651 72.075C385.851 94.575 384.951 111.075 384.951 121.575C384.951 149.925 390.426 164.1 401.376 164.1C401.376 164.1 404.151 163.575 409.701 162.525C411.051 162.525 412.176 163.125 413.076 164.325C412.626 169.725 408.201 172.425 399.801 172.425C391.551 172.425 385.176 169.95 380.676 165C376.176 159.9 373.326 153.6 372.126 146.1C371.076 138.45 370.551 132.15 370.551 127.2C370.551 122.25 370.626 116.85 370.776 111C370.926 105 371.601 96.45 372.801 85.35C375.201 62.85 376.401 47.55 376.401 39.45ZM438.564 8.39999C438.414 11.85 438.339 15.675 438.339 19.875C438.339 24.075 438.564 28.425 439.014 32.925C436.914 35.325 434.064 36.525 430.464 36.525C425.964 36.525 423.714 32.925 423.714 25.725C423.714 25.425 423.714 24.3 423.714 22.35C423.714 20.4 423.714 18.675 423.714 17.175C423.864 15.525 424.164 13.65 424.614 11.55C425.664 7.94999 427.989 6.14999 431.589 6.14999C435.189 6.14999 437.514 6.89999 438.564 8.39999ZM424.164 118.65C424.164 89.25 425.664 72.3 428.664 67.8C429.714 66.15 430.989 65.325 432.489 65.325C433.989 65.325 436.464 66.15 439.914 67.8C439.164 80.55 438.789 94.425 438.789 109.425C438.789 109.425 438.939 126 439.239 159.15C439.239 163.8 438.189 167.1 436.089 169.05C434.139 170.85 432.264 171.75 430.464 171.75C428.814 171.75 427.089 171.3 425.289 170.4C424.539 150.9 424.164 133.65 424.164 118.65ZM484.508 175.575C481.808 175.575 480.458 152.85 480.458 107.4C480.458 88.2 480.383 76.575 480.233 72.525H475.733C473.633 72.525 471.983 72.525 470.783 72.525C469.583 72.375 468.008 72.3 466.058 72.3C464.258 72.15 462.758 71.925 461.558 71.625C460.508 71.325 459.383 70.95 458.183 70.5C455.933 69.6 454.808 68.025 454.808 65.775C454.808 62.925 459.458 61.5 468.758 61.5C472.808 61.5 476.483 61.65 479.783 61.95C479.933 58.95 480.008 55.125 480.008 50.475C480.158 45.675 480.308 42 480.458 39.45C480.608 36.75 480.758 33.525 480.908 29.775C481.208 26.025 481.583 23.1 482.033 21C482.633 18.9 483.383 16.575 484.283 14.025C485.183 11.325 486.383 9.29999 487.883 7.94999C489.383 6.59999 491.108 5.24999 493.058 3.89999C496.508 1.34999 502.208 0.0749862 510.158 0.0749862C518.258 0.0749862 524.183 2.09999 527.933 6.14999C531.833 10.05 535.283 16.725 538.283 26.175C536.033 28.875 533.408 30.225 530.408 30.225C529.358 30.225 528.308 30.075 527.258 29.775C524.558 22.575 522.083 17.7 519.833 15.15C517.733 12.6 514.808 11.325 511.058 11.325C507.308 11.325 504.458 12 502.508 13.35C500.708 14.7 499.283 16.425 498.233 18.525C495.983 23.025 494.858 33.9 494.858 51.15C494.858 51.9 494.858 53.25 494.858 55.2C494.858 57.15 494.858 58.95 494.858 60.6L513.983 58.8C521.483 58.8 525.233 60.525 525.233 63.975C525.233 66.225 523.433 67.725 519.833 68.475C516.233 69.225 511.658 69.675 506.108 69.825C500.708 69.975 496.958 70.425 494.858 71.175C494.558 75.375 494.408 80.925 494.408 87.825C494.408 94.575 494.783 105.375 495.533 120.225C496.283 134.925 496.658 146.175 496.658 153.975C496.658 161.775 495.833 167.325 494.183 170.625C492.683 173.925 489.458 175.575 484.508 175.575ZM544.367 128.325C544.067 131.325 543.917 133.35 543.917 134.4C543.917 143.4 546.617 150.375 552.017 155.325C557.567 160.275 564.092 162.75 571.592 162.75C579.092 162.75 585.167 161.7 589.817 159.6C594.617 157.5 598.067 155.25 600.167 152.85C605.567 146.1 610.517 142.725 615.017 142.725C616.667 142.725 618.617 143.175 620.867 144.075C619.367 151.425 613.667 158.175 603.767 164.325C594.017 170.325 581.717 173.325 566.867 173.325C556.367 173.325 547.292 170.025 539.642 163.425C532.142 156.675 528.392 147.525 528.392 135.975C528.392 124.425 530.642 113.25 535.142 102.45C539.792 91.5 546.392 82.2 554.942 74.55C563.642 66.75 572.417 62.85 581.267 62.85C590.267 62.85 597.467 64.725 602.867 68.475C608.417 72.075 611.192 77.4 611.192 84.45C611.192 97.5 605.342 108.3 593.642 116.85C582.092 125.25 569.792 129.45 556.742 129.45C553.292 129.45 549.167 129.075 544.367 128.325ZM561.467 120.9C568.517 120.9 574.817 118.65 580.367 114.15C585.917 109.65 589.817 104.925 592.067 99.975C594.467 95.025 595.667 90.525 595.667 86.475C595.667 82.425 594.092 78.9 590.942 75.9C587.792 72.75 584.117 71.175 579.917 71.175C572.417 71.175 565.442 76.35 558.992 86.7C552.692 97.05 548.192 107.775 545.492 118.875C552.092 120.225 557.417 120.9 561.467 120.9Z" fill="white"/>
</g>
<defs>
<filter id="filter0_d_6_8" x="0.325001" y="0.0749817" width="624.542" height="187.325" filterUnits="userSpaceOnUse" color-interpolation-filters="sRGB">
<feFlood flood-opacity="0" result="BackgroundImageFix"/>
<feColorMatrix in="SourceAlpha" type="matrix" values="0 0 0 0 0 0 0 0 0 0 0 0 0 0 0 0 0 0 127 0" result="hardAlpha"/>
<feOffset dy="4"/>
<feGaussianBlur stdDeviation="2"/>
<feComposite in2="hardAlpha" operator="out"/>
<feColorMatrix type="matrix" values="0 0 0 0 0 0 0 0 0 0 0 0 0 0 0 0 0 0 0.25 0"/>
<feBlend mode="normal" in2="BackgroundImageFix" result="effect1_dropShadow_6_8"/>
<feBlend mode="normal" in="SourceGraphic" in2="effect1_dropShadow_6_8" result="shape"/>
</filter>
</defs>
</svg>
